<svg width="57" height="57" viewBox="0 0 57 57" fill="none" xmlns="http://www.w3.org/2000/svg">
<rect width="57" height="57" rx="28.5" fill="#F9F9F9"/>
<path d="M36.4586 25.1194C36.3367 25.2141 34.1982 26.4187 34.1982 29.0986C34.1982 32.1981 36.9187 33.2945 37 33.3215C36.9865 33.3891 36.5669 34.8239 35.5652 36.2856C34.672 37.5715 33.738 38.8572 32.3169 38.8572C30.8958 38.8572 30.5302 38.0316 28.8925 38.0316C27.2954 38.0316 26.7269 38.8844 25.4275 38.8844C24.1281 38.8844 23.2212 37.6932 22.1791 36.2315C20.9745 34.5125 20 31.8461 20 29.3151C20 25.2546 22.6394 23.1025 25.238 23.1025C26.6186 23.1025 27.769 24.0094 28.6352 24.0094C29.4609 24.0094 30.7467 23.0484 32.3167 23.0484C32.9124 23.0485 35.051 23.1028 36.4586 25.1194ZM31.5725 21.3296C32.2221 20.5581 32.6824 19.4889 32.6824 18.4196C32.6824 18.2708 32.6689 18.1219 32.6418 18C31.586 18.0406 30.3273 18.7039 29.5692 19.5836C28.9738 20.2604 28.4187 21.3296 28.4187 22.4125C28.4187 22.5749 28.4459 22.7374 28.4594 22.7915C28.527 22.805 28.6354 22.8186 28.7436 22.8186C29.6911 22.8185 30.8821 22.1824 31.5725 21.3296Z" fill="#454545"/>
</svg>
