<svg width="19" height="18" viewBox="0 0 19 18" fill="none" xmlns="http://www.w3.org/2000/svg">
<path d="M1.27785 5.89844H4.95645V17.7345H1.27785V5.89844ZM3.11817 0.0078125C3.54008 0.00781269 3.95252 0.132951 4.3033 0.367398C4.65409 0.601844 4.92745 0.935064 5.08882 1.3249C5.25019 1.71474 5.29231 2.14368 5.20985 2.55746C5.12739 2.97124 4.92405 3.35127 4.62557 3.64947C4.32709 3.94767 3.94687 4.15064 3.53301 4.2327C3.11915 4.31477 2.69025 4.27224 2.30056 4.1105C1.91088 3.94876 1.57792 3.67508 1.34381 3.32407C1.1097 2.97307 0.984951 2.56051 0.985353 2.13859C0.985891 1.57329 1.21083 1.03132 1.61076 0.63178C2.01068 0.23224 2.55286 0.00781224 3.11817 0.0078125ZM7.26395 5.89844H10.7902V7.52344H10.8389C11.3305 6.59312 12.5289 5.61203 14.3185 5.61203C18.0438 5.60391 18.7344 8.05562 18.7344 11.2345V17.7345H15.0558V11.9759C15.0558 10.6048 15.0314 8.83969 13.1444 8.83969C11.2574 8.83969 10.9364 10.3347 10.9364 11.8866V17.7345H7.26395V5.89844Z" fill="white"/>
</svg>
