<svg width="146" height="133" viewBox="0 0 146 133" fill="none" xmlns="http://www.w3.org/2000/svg">
<g filter="url(#filter0_d_24_230)">
<rect x="26" y="27" width="62" height="62" rx="31" fill="white"/>
</g>
<path d="M61.5757 62.5683C61.3477 62.3415 61.2337 62.0713 61.2337 61.7577C61.2337 61.4442 61.3477 61.1774 61.5757 60.9575L63.6278 58.9166H54.8963C54.5742 58.9166 54.3027 58.8064 54.082 58.5858C53.8612 58.3653 53.7508 58.0941 53.7508 57.7723C53.7508 57.4505 53.8612 57.181 54.082 56.9639C54.3027 56.7467 54.5742 56.6381 54.8963 56.6381H63.57L61.4726 54.5522C61.2639 54.354 61.1622 54.1006 61.1677 53.7922C61.1731 53.4838 61.2919 53.2157 61.5241 52.988C61.7414 52.7602 62.0131 52.649 62.3391 52.6544C62.6651 52.6598 62.9421 52.7759 63.1701 53.0027L67.1964 57.007C67.3136 57.1264 67.3999 57.2544 67.4554 57.391C67.5108 57.5277 67.5385 57.668 67.5385 57.8118C67.5385 57.9556 67.5108 58.0941 67.4554 58.2274C67.3999 58.3606 67.3136 58.4866 67.1964 58.6052L63.1827 62.597C62.974 62.8046 62.7137 62.9084 62.4019 62.9084C62.09 62.9084 61.8146 62.795 61.5757 62.5683ZM48.3074 68.5385C47.6762 68.5385 47.1338 68.3145 46.6803 67.8667C46.2268 67.4188 46 66.8832 46 66.2599V49.2948C46 48.667 46.2268 48.1276 46.6803 47.6765C47.1338 47.2255 47.6762 47 48.3074 47H55.6922C56.0144 47 56.2858 47.1135 56.5066 47.3404C56.7274 47.5673 56.8378 47.8412 56.8378 48.162C56.8378 48.4828 56.7274 48.7518 56.5066 48.969C56.2858 49.1862 56.0144 49.2948 55.6922 49.2948H48.3074V66.2599H55.6922C56.0144 66.2599 56.2858 66.3702 56.5066 66.5907C56.7274 66.8113 56.8378 67.0824 56.8378 67.4042C56.8378 67.726 56.7274 67.9955 56.5066 68.2127C56.2858 68.4299 56.0144 68.5385 55.6922 68.5385H48.3074Z" fill="#454545"/>
<defs>
<filter id="filter0_d_24_230" x="-4" y="0" width="150" height="150" filterUnits="userSpaceOnUse" color-interpolation-filters="sRGB">
<feFlood flood-opacity="0" result="BackgroundImageFix"/>
<feColorMatrix in="SourceAlpha" type="matrix" values="0 0 0 0 0 0 0 0 0 0 0 0 0 0 0 0 0 0 127 0" result="hardAlpha"/>
<feMorphology radius="4" operator="dilate" in="SourceAlpha" result="effect1_dropShadow_24_230"/>
<feOffset dx="14" dy="17"/>
<feGaussianBlur stdDeviation="20"/>
<feComposite in2="hardAlpha" operator="out"/>
<feColorMatrix type="matrix" values="0 0 0 0 0.917647 0 0 0 0 0.917647 0 0 0 0 0.917647 0 0 0 1 0"/>
<feBlend mode="normal" in2="BackgroundImageFix" result="effect1_dropShadow_24_230"/>
<feBlend mode="normal" in="SourceGraphic" in2="effect1_dropShadow_24_230" result="shape"/>
</filter>
</defs>
</svg>
