<svg width="34" height="34" viewBox="0 0 34 34" fill="none" xmlns="http://www.w3.org/2000/svg">
<path d="M6.37485 19.7084C6.17368 19.7084 6.00557 19.6404 5.87051 19.5044C5.73546 19.3684 5.66746 19.1998 5.66651 18.9986C5.66557 18.7975 5.73357 18.6294 5.87051 18.4943C6.00746 18.3593 6.17557 18.2917 6.37485 18.2917H20.6248C20.826 18.2917 20.9941 18.3597 21.1292 18.4957C21.2642 18.6317 21.3322 18.8003 21.3332 19.0015C21.3341 19.2026 21.2661 19.3708 21.1292 19.5058C20.9922 19.6409 20.8241 19.7084 20.6248 19.7084H6.37485ZM6.37485 10.9509C6.17368 10.9509 6.00557 10.8834 5.87051 10.7483C5.73451 10.6123 5.66651 10.4437 5.66651 10.2426C5.66651 10.0414 5.73451 9.87328 5.87051 9.73823C6.00651 9.60317 6.17462 9.53564 6.37485 9.53564H27.6248C27.826 9.53564 27.9941 9.60364 28.1292 9.73964C28.2642 9.87564 28.3322 10.0433 28.3332 10.2426C28.3341 10.4418 28.2661 10.61 28.1292 10.7469C27.9922 10.8838 27.8241 10.9518 27.6248 10.9509H6.37485Z" fill="black"/>
</svg>
