<svg width="27" height="18" viewBox="0 0 27 18" fill="none" xmlns="http://www.w3.org/2000/svg">
<g clip-path="url(#clip0_46_527)">
<path d="M2.91063 11.8038C2.91063 12.8327 3.13653 13.6227 3.43168 14.1006C3.81874 14.7266 4.3959 14.9918 4.98442 14.9918C5.74347 14.9918 6.43789 14.8034 7.776 12.9526C8.84811 11.4693 10.1114 9.38695 10.9613 8.08158L12.4007 5.87C13.4006 4.33411 14.5579 2.62674 15.8849 1.46937C16.968 0.524737 18.1366 0 19.3126 0C21.2872 0 23.1679 1.14421 24.6074 3.29021C26.1826 5.64042 26.9474 8.60074 26.9474 11.6557C26.9474 13.4718 26.5895 14.8062 25.9803 15.8605C25.3918 16.8801 24.2447 17.8987 22.3153 17.8987V14.9918C23.9674 14.9918 24.3797 13.4737 24.3797 11.7363C24.3797 9.26053 23.8024 6.51284 22.5308 4.54968C21.6283 3.15705 20.4588 2.30621 19.1722 2.30621C17.7806 2.30621 16.6607 3.35568 15.4022 5.22726C14.7332 6.22147 14.0462 7.43316 13.2751 8.80032L12.426 10.3044C10.7204 13.3284 10.2884 14.0172 9.43568 15.1539C7.94095 17.1444 6.66474 17.8987 4.98442 17.8987C2.99126 17.8987 1.73074 17.0356 0.950211 15.7349C0.312947 14.6751 0 13.2844 0 11.6998L2.91063 11.8038Z" fill="#0081FB"/>
<path d="M2.29504 3.49537C3.62957 1.43853 5.55525 0 7.76399 0C9.04325 0 10.3148 0.378632 11.6427 1.46284C13.0951 2.64821 14.6433 4.60021 16.5746 7.81737L17.2673 8.97179C18.9389 11.7569 19.8901 13.1897 20.4467 13.8655C21.1627 14.7332 21.6641 14.9918 22.3154 14.9918C23.9675 14.9918 24.3798 13.4737 24.3798 11.7363L26.9475 11.6557C26.9475 13.4718 26.5896 14.8062 25.9804 15.8605C25.3919 16.8801 24.2448 17.8987 22.3154 17.8987C21.1159 17.8987 20.0533 17.6382 18.8781 16.5296C17.9747 15.6787 16.9186 14.1672 16.1061 12.8083L13.6893 8.77126C12.4767 6.74526 11.3643 5.23474 10.7206 4.55053C10.0282 3.81495 9.13789 2.92653 7.71725 2.92653C6.56746 2.92653 5.59094 3.73347 4.77378 4.96758L2.29504 3.49537Z" fill="url(#paint0_linear_46_527)"/>
<path d="M7.71705 2.92653C6.56726 2.92653 5.59074 3.73347 4.77358 4.96758C3.61821 6.71158 2.91063 9.30916 2.91063 11.8038C2.91063 12.8327 3.13653 13.6227 3.43168 14.1006L0.950211 15.7349C0.312947 14.6751 0 13.2844 0 11.6998C0 8.81811 0.790947 5.81474 2.29495 3.49537C3.62947 1.43853 5.55516 0 7.76389 0L7.71705 2.92653Z" fill="url(#paint1_linear_46_527)"/>
</g>
<defs>
<linearGradient id="paint0_linear_46_527" x1="344.421" y1="1001.15" x2="2197.68" y2="1094.75" gradientUnits="userSpaceOnUse">
<stop stop-color="#0064E1"/>
<stop offset="0.4" stop-color="#0064E1"/>
<stop offset="0.83" stop-color="#0073EE"/>
<stop offset="1" stop-color="#0082FB"/>
</linearGradient>
<linearGradient id="paint1_linear_46_527" x1="421.696" y1="1302.57" x2="421.696" y2="618.494" gradientUnits="userSpaceOnUse">
<stop stop-color="#0082FB"/>
<stop offset="1" stop-color="#0064E0"/>
</linearGradient>
<clipPath id="clip0_46_527">
<rect width="26.9474" height="18" fill="white"/>
</clipPath>
</defs>
</svg>
