<svg width="33" height="33" viewBox="0 0 33 33" fill="none" xmlns="http://www.w3.org/2000/svg">
<path d="M28.2519 17.207C28.0402 19.497 27.1808 21.6794 25.7741 23.4988C24.3674 25.3182 22.4716 26.6994 20.3086 27.4807C18.1456 28.262 15.8048 28.4111 13.5601 27.9106C11.3154 27.4101 9.25972 26.2807 7.63352 24.6545C6.00732 23.0283 4.87789 20.9726 4.37738 18.7279C3.87687 16.4832 4.02599 14.1424 4.80728 11.9794C5.58858 9.81639 6.96974 7.92061 8.78915 6.51391C10.6086 5.10721 12.791 4.24776 15.081 4.03613C13.7403 5.85001 13.0951 8.08486 13.2628 10.3342C13.4306 12.5836 14.4001 14.698 15.995 16.293C17.59 17.8879 19.7044 18.8574 21.9538 19.0252C24.2031 19.1929 26.438 18.5477 28.2519 17.207Z" stroke="#454545" stroke-width="2" stroke-linecap="round" stroke-linejoin="round"/>
</svg>
