<svg width="27" height="27" viewBox="0 0 27 27" fill="none" xmlns="http://www.w3.org/2000/svg">
<path d="M25.2519 14.207C25.0402 16.497 24.1808 18.6794 22.7741 20.4988C21.3674 22.3182 19.4716 23.6994 17.3086 24.4807C15.1456 25.262 12.8048 25.4111 10.5601 24.9106C8.31543 24.4101 6.25972 23.2807 4.63352 21.6545C3.00732 20.0283 1.87789 17.9726 1.37738 15.7279C0.87687 13.4832 1.02599 11.1424 1.80728 8.9794C2.58858 6.81639 3.96974 4.92061 5.78915 3.51391C7.60856 2.10721 9.79097 1.24776 12.081 1.03613C10.7403 2.85001 10.0951 5.08486 10.2628 7.33421C10.4306 9.58357 11.4001 11.698 12.995 13.293C14.59 14.8879 16.7044 15.8574 18.9538 16.0252C21.2031 16.1929 23.438 15.5477 25.2519 14.207Z" stroke="#454545" stroke-width="2" stroke-linecap="round" stroke-linejoin="round"/>
</svg>
