<svg width="26" height="26" viewBox="0 0 26 26" fill="none" xmlns="http://www.w3.org/2000/svg">
<path d="M15.8304 6.44873V10.8988L17.3872 11.8779C17.4434 11.8899 17.5016 11.8899 17.5578 11.8779L24.2512 7.36523C24.2463 7.14622 24.1662 6.93557 24.0243 6.76867C23.8824 6.60177 23.6874 6.48879 23.472 6.44873H15.8304Z" fill="#0072C6"/>
<path d="M15.8306 12.5587L17.2501 13.5337C17.3165 13.5743 17.3928 13.5958 17.4707 13.5958C17.5485 13.5958 17.6249 13.5743 17.6913 13.5337C17.4475 13.6807 24.2506 9.16406 24.2506 9.16406V17.3427C24.2683 17.5084 24.2496 17.676 24.1958 17.8338C24.142 17.9915 24.0544 18.1356 23.9391 18.2559C23.8238 18.3763 23.6836 18.47 23.5282 18.5305C23.3729 18.591 23.2063 18.6168 23.04 18.6061H15.8298L15.8306 12.5587ZM8.48239 10.5071C8.24656 10.5061 8.01484 10.5688 7.81174 10.6887C7.60864 10.8085 7.44172 10.981 7.32864 11.188C7.01994 11.7367 6.87184 12.3612 6.90126 12.9901C6.86919 13.6177 7.01749 14.2414 7.32864 14.7874C7.44118 14.9859 7.60397 15.1512 7.80067 15.2669C7.99737 15.3825 8.22103 15.4443 8.4492 15.4462C8.67736 15.448 8.90198 15.3897 9.10049 15.2772C9.299 15.1647 9.4644 15.0019 9.58008 14.8052C9.88844 14.262 10.0337 13.6414 9.99851 13.0177C10.0337 12.3746 9.89329 11.7339 9.59226 11.1644C9.4844 10.9644 9.32409 10.7975 9.12856 10.6817C8.93302 10.5659 8.70964 10.5056 8.48239 10.5071Z" fill="#0072C6"/>
<path d="M1.74902 4.18844V21.5979L14.9928 24.375V1.625L1.74902 4.18844ZM10.6118 15.8364C10.3641 16.1857 10.0347 16.4691 9.65228 16.6619C9.2699 16.8546 8.84615 16.9509 8.41802 16.9422C8.00068 16.9497 7.58772 16.8562 7.21426 16.6697C6.84081 16.4833 6.51791 16.2094 6.27302 15.8714C5.69229 15.0605 5.40177 14.0776 5.44834 13.0813C5.39905 12.0361 5.69483 11.0037 6.29009 10.1433C6.54111 9.78747 6.87573 9.49885 7.2645 9.30276C7.65327 9.10668 8.08427 9.00915 8.51959 9.01875C8.93386 9.01072 9.34379 9.10436 9.71348 9.29147C10.0832 9.47859 10.4014 9.75347 10.6402 10.0921C11.2151 10.9205 11.5007 11.9155 11.4527 12.9228C11.5036 13.9604 11.2077 14.9855 10.6118 15.8364Z" fill="#0072C6"/>
</svg>
