<svg width="42" height="42" viewBox="0 0 42 42" fill="none" xmlns="http://www.w3.org/2000/svg">
<g clip-path="url(#clip0_90_280)">
<path fill-rule="evenodd" clip-rule="evenodd" d="M29.4245 12.6577C29.5964 12.8304 29.7121 13.0511 29.7564 13.2908C29.8007 13.5304 29.7715 13.7779 29.6727 14.0007L20.2179 35.3551C20.1214 35.5728 19.9628 35.757 19.7619 35.8849C19.5611 36.0127 19.327 36.0784 19.0889 36.0738C18.8509 36.0691 18.6195 35.9943 18.4239 35.8587C18.2282 35.7231 18.0769 35.5328 17.9889 35.3115L15.2651 28.458L20.8503 22.8985C21.0776 22.6723 21.2057 22.365 21.2065 22.0443C21.2072 21.7236 21.0805 21.4157 20.8543 21.1884C20.628 20.9611 20.3208 20.833 20 20.8323C19.6793 20.8315 19.3715 20.9582 19.1442 21.1845L13.559 26.7439L6.71811 23.9886C6.49728 23.8996 6.30763 23.7474 6.17294 23.5511C6.03824 23.3548 5.96449 23.1231 5.96093 22.8851C5.95737 22.647 6.02416 22.4132 6.15292 22.213C6.28169 22.0127 6.4667 21.8549 6.68477 21.7594L28.0826 12.4032C28.3059 12.3055 28.5535 12.2774 28.7929 12.3229C29.0324 12.3683 29.2525 12.485 29.4245 12.6577Z" fill="white"/>
</g>
<defs>
<clipPath id="clip0_90_280">
<rect width="29.0213" height="29.0213" fill="white" transform="translate(20.9019 0.666992) rotate(45.1322)"/>
</clipPath>
</defs>
</svg>
