<svg width="70" height="24" viewBox="0 0 70 24" fill="none" xmlns="http://www.w3.org/2000/svg">
<path d="M7.79688 23.4844C6.71354 23.4844 5.70833 23.2656 4.78125 22.8281C3.85417 22.3802 3.05208 21.7708 2.375 21C1.70833 20.2292 1.18229 19.3281 0.796875 18.2969C0.421875 17.2552 0.234375 16.1458 0.234375 14.9688C0.234375 13.7917 0.427083 12.6875 0.8125 11.6562C1.19792 10.625 1.72396 9.72396 2.39062 8.95312C3.06771 8.18229 3.86458 7.57292 4.78125 7.125C5.70833 6.67708 6.70833 6.45312 7.78125 6.45312C9.10417 6.45312 10.2708 6.73438 11.2812 7.29688C12.2917 7.85938 13.0573 8.64583 13.5781 9.65625V6.9375H17.1719V23H13.5781V20.2969C13.0469 21.3073 12.276 22.0938 11.2656 22.6562C10.2656 23.2083 9.10938 23.4844 7.79688 23.4844ZM8.70312 19.9844C9.35938 19.9844 9.97396 19.8594 10.5469 19.6094C11.1302 19.349 11.6302 18.9948 12.0469 18.5469C12.474 18.099 12.8073 17.5677 13.0469 16.9531C13.2969 16.3385 13.4219 15.6771 13.4219 14.9688C13.4219 14.2708 13.2969 13.6198 13.0469 13.0156C12.8073 12.401 12.474 11.8698 12.0469 11.4219C11.6198 10.9635 11.1198 10.6042 10.5469 10.3438C9.97396 10.0833 9.35938 9.95312 8.70312 9.95312C8.05729 9.95312 7.44792 10.0729 6.875 10.3125C6.30208 10.5521 5.80208 10.8906 5.375 11.3281C4.94792 11.7656 4.60938 12.2969 4.35938 12.9219C4.10938 13.5365 3.98438 14.2188 3.98438 14.9688C3.98438 15.75 4.10938 16.4531 4.35938 17.0781C4.61979 17.6927 4.96354 18.2188 5.39062 18.6562C5.81771 19.0833 6.31771 19.4115 6.89062 19.6406C7.46354 19.8698 8.06771 19.9844 8.70312 19.9844ZM22.625 0.984375H26.4062V23H22.625V0.984375ZM33.7031 4.4375C33.3385 4.4375 33.0104 4.38021 32.7188 4.26562C32.4375 4.15104 32.1927 4 31.9844 3.8125C31.7865 3.61458 31.6354 3.38542 31.5312 3.125C31.4271 2.85417 31.375 2.56771 31.375 2.26562C31.375 1.97396 31.4271 1.69792 31.5312 1.4375C31.6354 1.17708 31.7865 0.947917 31.9844 0.75C32.1927 0.552083 32.4375 0.395833 32.7188 0.28125C33.0104 0.166667 33.3438 0.109375 33.7188 0.109375C34.0938 0.109375 34.4271 0.166667 34.7188 0.28125C35.0208 0.395833 35.2708 0.552083 35.4688 0.75C35.6771 0.947917 35.8333 1.17708 35.9375 1.4375C36.0417 1.69792 36.0938 1.97396 36.0938 2.26562C36.0938 2.56771 36.0417 2.85417 35.9375 3.125C35.8333 3.38542 35.6771 3.61458 35.4688 3.8125C35.2708 4 35.0208 4.15104 34.7188 4.26562C34.4271 4.38021 34.0885 4.4375 33.7031 4.4375ZM31.8438 6.9375H35.625V23H31.8438V6.9375ZM41.0625 6.9375H44.6875V9.84375C45.0625 8.95833 45.6094 8.25521 46.3281 7.73438C47.0573 7.20312 47.9479 6.9375 49 6.9375H50.7188V10.1875H49.2031C48.5573 10.1875 47.9635 10.3073 47.4219 10.5469C46.8906 10.776 46.4323 11.1198 46.0469 11.5781C45.6719 12.026 45.375 12.5833 45.1562 13.25C44.9479 13.9167 44.8438 14.6771 44.8438 15.5312V23H41.0625V6.9375ZM60.2344 23.4844C59.151 23.4844 58.1458 23.2656 57.2188 22.8281C56.2917 22.3802 55.4896 21.7708 54.8125 21C54.1458 20.2292 53.6198 19.3281 53.2344 18.2969C52.8594 17.2552 52.6719 16.1458 52.6719 14.9688C52.6719 13.7917 52.8646 12.6875 53.25 11.6562C53.6354 10.625 54.1615 9.72396 54.8281 8.95312C55.5052 8.18229 56.3021 7.57292 57.2188 7.125C58.1458 6.67708 59.1458 6.45312 60.2188 6.45312C61.5417 6.45312 62.7083 6.73438 63.7188 7.29688C64.7292 7.85938 65.4948 8.64583 66.0156 9.65625V6.9375H69.6094V23H66.0156V20.2969C65.4844 21.3073 64.7135 22.0938 63.7031 22.6562C62.7031 23.2083 61.5469 23.4844 60.2344 23.4844ZM61.1406 19.9844C61.7969 19.9844 62.4115 19.8594 62.9844 19.6094C63.5677 19.349 64.0677 18.9948 64.4844 18.5469C64.9115 18.099 65.2448 17.5677 65.4844 16.9531C65.7344 16.3385 65.8594 15.6771 65.8594 14.9688C65.8594 14.2708 65.7344 13.6198 65.4844 13.0156C65.2448 12.401 64.9115 11.8698 64.4844 11.4219C64.0573 10.9635 63.5573 10.6042 62.9844 10.3438C62.4115 10.0833 61.7969 9.95312 61.1406 9.95312C60.4948 9.95312 59.8854 10.0729 59.3125 10.3125C58.7396 10.5521 58.2396 10.8906 57.8125 11.3281C57.3854 11.7656 57.0469 12.2969 56.7969 12.9219C56.5469 13.5365 56.4219 14.2188 56.4219 14.9688C56.4219 15.75 56.5469 16.4531 56.7969 17.0781C57.0573 17.6927 57.401 18.2188 57.8281 18.6562C58.2552 19.0833 58.7552 19.4115 59.3281 19.6406C59.901 19.8698 60.5052 19.9844 61.1406 19.9844Z" fill="#454545"/>
</svg>
